<?xml version="1.0" encoding="UTF-8"?><svg xmlns="http://www.w3.org/2000/svg" width="1119" height="810" viewBox="0 0 1119 810"><defs><style>.cls-1{fill:#bb4726;}.cls-2{fill:#456b22;}.cls-3{fill:none;stroke:#456b22;stroke-miterlimit:10;stroke-width:10px;}</style></defs><g id="Layer_1"><g><path class="cls-3" d="M553.95,222.18c.59,.57,1.09,1.24,1.47,1.97"/><path class="cls-3" d="M537.28,223.16c2.42-4.48,16.35-3.54,17.88,.67"/></g><g><g><path class="cls-3" d="M555.15,223.83c25.5,61.64,61.56,95.06,91.13,146.13,.65-1.19-6.83-10.96,0,0"/><path class="cls-3" d="M529,237.76c2.05-3.56,6.31-10.99,8.28-14.6"/><path class="cls-3" d="M452.78,369.58c10.83-25.44,37.32-57.42,51.84-81.82,12.78-20.91,12.42-30.16,24.55-50.32"/></g><path class="cls-3" d="M783.16,452.18c-20.23-55.79-63.11-93.04-90.05-155.17-.86-1.99-4.24-.04-5.77,1.23-16.73,31.05-33.06,62.36-50.86,92.82,.46-.89,.92-1.78,1.39-2.67-.46,.89-.92,1.78-1.39,2.67"/><path class="cls-3" d="M302.73,446.57c18.87-52.94,76.15-100.3,99.57-158.26,.81-2.01,4.8-.51,5.77,1.23,17.19,30.79,36.03,60.68,50.86,92.82-.46-.89-.92-1.78-1.39-2.67,.46,.89,.92,1.78,1.39,2.67"/></g><path class="cls-2" d="M669.33,340.5c.58-.33,.34-.23,.89-.36s.36-.12,1.03-.14c1.09-.03,1.66,.05,2.73,.35,1.99,.55,3.07,1.41,4.56,2.77,1.76,1.61,3.5,3.3,5.57,4.52,2.45,1.45,5.26,2.01,8.08,1.9,2.61-.1,5.17-.71,7.78-.76,1.77-.04,3.71,.13,5,1.24,1.63,1.39,2.46,3.36,4.44,4.41,1.55,.82,3.28,1.18,5,1.43,1.17,.17,2.34,.32,3.51,.46,.51,.06,1.02,.12,1.53,.19-.45-.06,.82,.13,.98,.16,.86,.15,1.69,.36,2.52,.6,.17,.05,.68,.28,.08,0,.17,.08,.34,.16,.51,.25s.3,.19,.46,.28c-.36-.23-.28-.23,0,.06,2.68,2.8,6.91-1.45,4.24-4.24s-7.2-2.92-10.76-3.35c-1.22-.15-1.08-.11-2.18-.3-.84-.14-1.67-.33-2.48-.58-.02,0-.75-.3-.31-.1s-.21-.12-.24-.14c-.12-.06-.23-.15-.35-.22,.63,.35,.17,.16,0-.03-.85-.98-1.6-2.09-2.54-2.99-4.1-3.92-9.75-3.14-14.87-2.55-2.54,.29-5.1,.44-7.36-.88-2.02-1.19-3.61-2.97-5.37-4.5-4.06-3.53-10.49-5.46-15.46-2.64-3.36,1.9-.34,7.09,3.03,5.18h0Z"/><path class="cls-2" d="M421.43,317.24c0,.15,0,.29,0,.44,0-.04,.11-.55,.02-.21-.04,.14-.28,.89-.09,.42-.29,.71-.73,1.38-1.17,2.01-.63,.91-1.83,2.12-2.87,3.07-.39,.35,.22-.09-.31,.24-.31,.19-.61,.41-.96,.55-.66,.25-1.32,.31-2.03,.25-1.6-.15-2.8-1.44-4.17-2.38-4.17-2.86-8.75-.63-12.07,2.37-1.2,1.08-2.41,2.45-4.01,2.88-2.03,.54-4.2,.12-6.26,.7s-3.74,1.69-5.5,2.71c-.78,.45-1.63,.92-2.21,1.09-.15,.04-.31,.08-.46,.13-.5,.14,.03,.01-.27,.04-.15,.01-.31,.01-.46,0,.61,.08-.4-.19,0-.01-1.48-.66-3.22-.43-4.1,1.08-.75,1.28-.41,3.44,1.08,4.1,2.05,.91,4.14,1.1,6.28,.31,1.92-.71,3.59-1.84,5.38-2.81,.85-.46,1.31-.7,2.2-.91,1.03-.25,2.12-.16,3.17-.22,2.79-.17,5.01-1.09,7.17-2.83,1.49-1.2,2.79-2.84,4.56-3.65s2.7,.48,4.23,1.59c3.89,2.81,9.06,2.24,12.68-.68,2.84-2.3,6.39-6.31,6.18-10.24-.09-1.62-1.32-3-3-3-1.56,0-3.09,1.37-3,3h0Z"/><path class="cls-2" d="M516.27,275.78c-.31,.26,.47-.28,.62-.34-.4,.19,.41-.1,.55-.14,.15-.04,.3-.07,.45-.09-.46,.07,.05,0,.13,0,.48-.02,.96-.01,1.44,.04,.36,.04,.08,.02,.01,0,.22,.04,.44,.08,.65,.13,.38,.09,.76,.2,1.13,.32,.55,.19,1.26,.53,1.98,.98,.11,.07,.79,.57,.55,.38,.31,.26,.6,.55,.88,.84,.62,.67,1.17,1.39,1.7,2.12,1.22,1.66,2.4,3.36,3.77,4.89s3.17,3.2,5.16,3.8c2.88,.87,4.91-1.18,6.1-3.53,.87-1.71,1.56-3.49,2.51-5.16,.42-.74,.83-1.38,1.39-1.97,.13-.14,.27-.26,.4-.4,.43-.42-.31,.18,.09-.09,.15-.11,1.1-.57,.68-.41,.32-.12,.64-.2,.97-.28s-.02-.02-.09,0c.19-.02,.38-.03,.57-.04s.38,0,.56,0c.05,0,.49,.07,.15,0s1.05,.43,.41,.1c.15,.08,.3,.16,.45,.25-.03-.02-.37-.3-.11-.08,.07,.06,.47,.39,.18,.17s.11,.06,.04,.12-.03-.47-.02,.04c0,.03,.14,1.41,.05,.46,.05,.56,.03,1.13,.09,1.69,.28,2.6,1.82,4.44,3.69,6.16s3.64,3.34,5.46,5,3.6,3.73,5.7,5.03c2.26,1.4,5.29,1,6.71-1.39,1.19-2,.82-4.39,.32-6.53-.26-1.12-.62-2.23-.78-3.37-.14-.98-.12-1.35,.12-2.16,.16-.54,.48-.95,.8-1.11-.18,.09-.29,.04,.18-.02-.4,.05-.03-.03,.07,.04-.31-.2-.19-.05,.03,.02,.51,.17-.09-.09,.21,.05,1.76,.81,2.62,1.97,4.34,3.04s3.43,1.35,5.38,1.54c.45,.04,.89,.09,1.34,.14,0,0,.51,.06,.22,.02s.45,.07,.52,.08c.37,.07,.74,.15,1.11,.24,.16,.04,.32,.09,.47,.15-.38-.14-.32-.15-.02,.07,1.3,.97,3.35,.21,4.1-1.08,.9-1.53,.22-3.13-1.08-4.1s-3.4-1.16-5.02-1.36c-.73-.09-1.45-.15-2.18-.23-.38-.04-.8-.16-.15,0-.2-.05-.39-.08-.59-.13-.47-.12-.01,.04-.27-.08-1.68-.78-2.46-1.76-3.99-2.81-1.72-1.18-3.72-1.82-5.8-1.45-4.87,.87-6.3,6.28-5.63,10.49,.19,1.22,.54,2.4,.82,3.6,.1,.43,.24,.96,.27,1.34,.02,.29,.04,.75-.05,.75l.03-.09c.12-.4,.44-.66,.95-.77l.46,.06c.56,.13,.6,.08,.13-.14-.2-.28-.59-.52-.84-.76-.97-.89-1.94-1.78-2.91-2.67-1.94-1.78-3.88-3.56-5.83-5.34-.66-.61-1.44-1.2-1.97-1.93s-.36-1.54-.43-2.42c-.33-4.28-3.92-6.96-8.12-6.63-4.36,.34-7.28,3.23-9.22,6.97-.44,.85-.83,1.73-1.23,2.6-.19,.41-.38,.81-.57,1.22s-.72,1.08-.79,1.51c-.06,.35-.76,.23,.76,.04,1.41-.18,.86,.02,.51-.28-.27-.23-.68-.43-.94-.64-.79-.63-1.48-1.4-2.13-2.17-2.85-3.39-4.86-7.44-9.08-9.38s-9.08-2.28-12.77,.81c-1.24,1.04-1.08,3.17,0,4.24,1.23,1.23,3,1.04,4.24,0h0Z"/></g><g id="Layer_3"><g><path class="cls-1" d="M153.35,609.32l1.96-10.73h-.3c-6.49,8.27-14.03,12.31-22.62,12.31-15.99,0-22.62-17.23-22.62-40.8,0-45.55,17.2-88.63,48.42-88.63,22.32,0,29.26,17.94,30.77,42.03l-21.87,2.46c-.75-11.43-3.17-20.05-10.71-20.05-14.63,0-21.57,39.22-21.57,64.01,0,10.38,2.71,16.71,9.35,16.71,8.9,0,13.88-9.67,15.23-21.1h-12.82l4.22-21.46h34.24l-12.37,65.24h-19.31Z"/><path class="cls-1" d="M180.96,609.32l23.83-126.27h24.13l-19.16,101.47h33.33l-4.98,24.8h-57.17Z"/><path class="cls-1" d="M273.72,610.9c-20.66,0-29.11-15.83-29.11-39.39,0-40.1,16.14-90.04,50.68-90.04,20.66,0,29.11,15.83,29.11,39.39,0,40.1-16.14,90.04-50.68,90.04Zm3.47-23.92c14.03,0,22.17-46.95,22.17-67.71,0-8.44-1.96-13.89-7.54-13.89-13.88,0-22.17,46.95-22.17,67.71,0,8.44,1.96,13.89,7.54,13.89Z"/><path class="cls-1" d="M316.56,609.32l23.83-126.27h22.47c25.19,0,37.41,11.43,37.41,30.95,0,15.3-6.79,25.15-18.4,30.6v.35c8.6,4.92,12.67,13.19,12.67,25.32,0,24.09-15.84,39.04-38.46,39.04h-39.52Zm38.46-24.44c8.75,0,14.48-5.28,14.48-16.88,0-8.44-4.38-12.66-10.71-12.66h-8.75l-5.58,29.54h10.56Zm4.07-51.35c10.86,0,16.44-4.4,16.44-15.12,0-7.04-3.92-10.9-11.46-10.9h-4.83l-4.83,26.03h4.68Z"/><path class="cls-1" d="M392.13,609.32l23.83-126.27h57.32l-4.83,24.8h-33.03l-4.68,24.62h24.74l-4.83,24.09h-24.43l-5.28,27.96h36.95l-4.83,24.8h-60.94Z"/><path class="cls-1" d="M495.3,609.32l19-101.47h-19.76l4.83-24.8h63.5l-4.83,24.8h-19.46l-19.31,101.47h-23.98Z"/><path class="cls-1" d="M590.02,609.32l-5.13-47.83h-8.15l-9.05,47.83h-24.13l23.83-126.27h23.53c23.23,0,37.1,7.91,37.1,32.89,0,15.65-6.64,29.9-19.76,37.28l7.24,56.1h-25.49Zm-.75-70.87c10.11,0,13.42-10.9,13.42-19.34s-4.07-12.13-10.56-12.13h-5.13l-5.88,31.48h8.14Z"/><path class="cls-1" d="M664.98,609.32l.91-27.26h-21.27l-8.9,27.26h-24.89l46.61-126.27h31.67l.6,126.27h-24.74Zm-12.22-52.23h14.03l1.81-46.95h-.45l-15.38,46.95Z"/><path class="cls-1" d="M701.04,609.32l-1.06-126.27h25.79l-3.32,84.76h.3l29.11-84.76h26.09l-47.96,126.27h-28.96Z"/><path class="cls-1" d="M755.79,609.32l23.83-126.27h57.32l-4.83,24.8h-33.03l-4.68,24.62h24.74l-4.83,24.09h-24.43l-5.28,27.96h36.95l-4.83,24.8h-60.94Z"/><path class="cls-1" d="M820.8,609.32l23.83-126.27h24.13l-19.16,101.47h33.33l-4.98,24.8h-57.17Z"/><path class="cls-1" d="M939.2,519.28c-1.51-8.79-5.28-14.6-11.46-14.6-5.13,0-7.54,4.04-7.54,10.02,0,16.88,29.56,26.03,29.56,58.74,0,23.74-15.08,37.46-34.24,37.46s-30.92-12.31-34.24-36.23l23.23-3.87c1.51,10.73,5.43,16.53,11.92,16.53,4.98,0,8.75-3.87,8.75-11.08,0-18.46-29.87-29.02-29.87-59.44,0-20.05,12.22-35.35,31.68-35.35,20.66,0,30.32,13.01,33.48,34.29l-21.27,3.52Z"/></g></g></svg>